<?xml version="1.0" encoding="iso-8859-1"?>
<!-- Generator: Adobe Illustrator 19.0.0, SVG Export Plug-In . SVG Version: 6.00 Build 0)  -->
<svg version="1.1" id="Capa_1" xmlns="http://www.w3.org/2000/svg" xmlns:xlink="http://www.w3.org/1999/xlink" x="0px" y="0px"
	 viewBox="0 0 461.902 461.902" style="enable-background:new 0 0 461.902 461.902;" xml:space="preserve">
<g>
	<path style="fill:#F4D4AB;" d="M98.351,386c-29.2-31.6-46.4-72.8-48-116l-0.4-6.4h179.2l-126.8,126.8L98.351,386z"/>
	<path style="fill:#F4D4AB;" d="M233.951,262l116.8-116.8l4.4,4.8c26.8,29.2,42.4,66.8,44,106l0.4,6.4L233.951,262z M339.151,202.8
		c-4,0-7.6,1.6-10.8,4.4c-4.8,4.4-6,10.8-3.6,16.8c2,6,8,10,14.4,10c8.4,0,15.6-6.8,15.6-15.6c0-4-1.6-8-4.4-10.8
		C347.151,204.4,343.151,202.8,339.151,202.8z"/>
	<path style="fill:#F4D4AB;" d="M233.951,263.6h165.2l-0.4,6.4c-1.6,39.6-17.2,76.8-44,106l-4.4,4.8L233.951,263.6z M347.551,302
		c-6.8,0.4-12,6.4-11.6,13.2c0.4,6.4,5.2,11.2,11.6,11.6c3.2,0,6.4-1.2,8.8-3.6c4.8-4.8,4.8-12.8,0-17.6
		C353.951,303.2,350.751,302,347.551,302z"/>
</g>
<path style="fill:#C0D863;" d="M347.551,325.2c-4.4,0-8-2.4-10-6.4c-1.6-4-0.8-8.4,2-11.6c2-2,4.8-3.2,8-3.2c6,0,10.8,4.8,10.4,10.8
	c0,2.8-1.2,5.6-3.2,7.2C353.151,324,350.351,325.2,347.551,325.2L347.551,325.2z"/>
<path style="fill:#FFFAE9;" d="M339.151,232c-7.2,0-13.6-5.6-13.6-13.2v-0.4c0-7.6,6.4-13.6,13.6-13.6l0,0c3.6,0,6.8,1.6,9.2,4
	l0.4,0.4c2.4,2.4,4,6,4,9.6c0,4-1.6,7.6-4.4,10C345.951,230.8,342.751,232,339.151,232L339.151,232z"/>
<path style="fill:#F2C249;" d="M231.551,454c-105.6-0.4-190.8-86.4-190.8-192c0.4-102.4,81.2-186.4,183.6-190.4l6.4-0.4v22l-5.6,0.4
	c-93.6,3.6-166.4,82.4-162.8,176s82.4,166,175.6,162.4s166-82.4,162.4-175.6c-1.6-40.4-17.6-78.8-44.8-108l-4-4.4l15.6-15.6l4.4,4.4
	c72,77.6,67.2,198.4-10,270.4C326.351,436,279.951,454,231.551,454z"/>
<path style="fill:#F4D4AB;" d="M232.351,265.2l116.8,116.8l-4.8,4.4c-29.2,26.8-66.8,42.4-106,44l-6.4,0.4L232.351,265.2z
	 M265.951,379.2c-6.8,0-12.4,5.6-12.4,12.4s5.6,12.4,12.4,12.4l0,0c6.8,0,12.4-5.6,12.4-12.4c0-1.6-0.4-3.2-0.8-4.8
	C275.551,382.4,270.751,379.2,265.951,379.2z M269.551,325.6c-5.2,0-9.6,3.2-11.6,7.6c-2,4.4-0.8,10,2.8,13.6
	c4.8,4.8,12.8,4.8,17.6,0l0,0c3.6-3.6,4.8-8.8,2.8-13.6C279.151,328.4,274.751,325.6,269.551,325.6z"/>
<path style="fill:#FFFAE9;" d="M269.551,348.8c-2.8,0-5.2-1.2-7.2-2.8c-3.2-2.8-4.4-7.6-2.4-11.6c1.6-4,5.6-6.8,10-6.8
	c2.8,0,5.6,1.2,7.6,3.2c3.2,2.8,4,7.6,2.4,11.6C277.951,346,273.951,348.8,269.551,348.8L269.551,348.8z"/>
<path style="fill:#C0D863;" d="M265.951,402.4c-4.4,0-8-2.8-10-6.4c-1.6-4-0.8-8.4,2-11.6c2-2,4.8-3.2,7.6-3.2
	c2.8,0,5.6,1.2,7.6,3.2s3.2,4.4,3.2,7.2c0,2.8-1.2,5.6-3.2,7.6C271.551,401.2,268.751,402.4,265.951,402.4z"/>
<path style="fill:#F4D4AB;" d="M224.351,430c-39.6-1.6-76.8-17.2-106-44l-4.8-4.4l116.8-116.8V430H224.351z M189.951,336.4
	c-8.4,0-15.6,6.8-15.6,15.6c0,8.4,6.8,15.6,15.6,15.6c4,0,8-1.6,10.8-4.4c6-6,6-16,0-22C197.551,338,193.951,336.4,189.951,336.4
	L189.951,336.4z"/>
<path style="fill:#FFFAE9;" d="M189.951,365.6c-3.6,0-7.2-1.6-9.6-4c-4-3.6-5.2-9.6-3.2-14.8c2-5.2,7.2-8.8,12.8-8.8
	c3.6,0,7.2,1.6,9.6,4c5.2,5.2,5.6,14,0,19.2C197.151,364.4,193.551,365.6,189.951,365.6L189.951,365.6z"/>
<path style="fill:#C0D863;" d="M112.751,325.6c-7.6,0-13.6-6-13.6-13.6s6-13.6,13.6-13.6c7.6,0,13.6,6,13.6,13.6
	c0,3.6-1.2,6.8-4,9.6C120.351,324,116.751,325.6,112.751,325.6z"/>
<path style="fill:#F4D4AB;" d="M63.951,262l0.4-6.4c1.6-39.6,17.2-76.8,44-106l4.4-4.8l116.8,116.8h-165.6V262z M110.751,195.2
	c-3.2,0-6.4,1.2-8.8,3.6c-2.4,2.4-3.6,5.6-3.6,8.8c0,6.8,5.6,12.4,12.4,12.4c0,0,0,0,0.4,0c3.2,0,6.4-1.2,8.4-3.6
	c3.6-3.6,4.8-8.8,2.8-13.6C120.351,198,115.951,195.2,110.751,195.2z"/>
<g>
	<path style="fill:#C0D863;" d="M110.751,218.4c-4.4,0-8.4-2.8-10-6.8s-0.8-8.4,2.4-11.2c4-4,10.8-4,15.2,0s4,10.8,0,15.2
		C116.351,217.2,113.551,218.4,110.751,218.4z"/>
	<path style="fill:#C0D863;" d="M202.351,204.8c-6,0-10.8-4.8-10.8-10.8s4.8-10.8,10.8-10.8c2.8,0,5.6,1.2,7.6,3.2
		c3.2,2.8,4,7.6,2.4,11.2C210.751,202,206.751,204.4,202.351,204.8z"/>
</g>
<path style="fill:#FFFAE9;" d="M171.551,152c-3.6,0-6.8-1.6-9.6-4c-4-3.6-5.2-9.6-3.2-14.8s7.2-8.4,12.8-8.8c7.6,0,13.6,6.4,13.6,14
	c0,1.6-0.4,3.2-0.8,4.8C181.951,148.4,177.151,152,171.551,152z"/>
<g>
	<path style="fill:#F4D4AB;" d="M113.551,143.6l4.8-4.4c29.2-26.8,66.8-42.4,106-44l6.4-0.4v165.6L113.551,143.6z M202.351,181.6
		c-3.2,0-6.4,1.2-8.8,3.6c-2.4,2-3.6,5.2-3.6,8.4c-0.4,6.8,5.2,12.8,12,12.8h0.4c3.2,0,6.4-1.2,8.8-3.6c3.6-3.6,4.8-8.8,2.8-13.6
		C211.951,184.4,207.551,181.6,202.351,181.6z M171.551,122.8c-8.4,0-15.6,6.8-15.6,15.6s6.8,15.6,15.6,15.6c4,0,8-1.6,10.8-4.4
		c6-6,6.4-16,0.4-22C179.951,124.4,175.551,122.8,171.551,122.8z"/>
	<path style="fill:#F4D4AB;" d="M258.751,31.2l6.4,0.4c39.6,1.6,77.2,17.2,106,44l4.4,4l-116.8,116.8V31.2z M295.551,104
		c-3.2,0-6.4,1.2-8.8,3.6c-2.4,2-3.6,5.2-3.6,8.4c-0.4,6.8,5.2,12.8,12,12.8h0.4c3.2,0,6.4-1.2,8.8-3.6c3.6-3.6,4.8-8.8,2.8-13.6
		C305.151,107.2,300.751,104,295.551,104z"/>
</g>
<path style="fill:#C0D863;" d="M295.551,127.2c-6,0-10.8-4.8-10.8-10.8c0-2.8,1.2-5.6,3.2-7.6c4-4,10.8-4,15.2,0
	c3.2,2.8,4,7.2,2.4,11.2C303.951,124.4,299.951,127.2,295.551,127.2z"/>
<path style="fill:#F2C249;" d="M373.151,74.8c-30-28-69.2-44-110.4-45.2h-5.6l-0.4-22h6.4c46.4,1.2,91.2,19.2,125.2,51.2l4.4,4.4
	l-15.6,15.6L373.151,74.8z"/>
<g>
	<path style="fill:#44260E;" d="M128.351,296.8c-8.4-8.4-22-8.4-30.4,0s-8.4,22,0,30.4s22,8.4,30.4,0l0,0c8.4-8.4,8.4-21.6,0.4-30
		L128.351,296.8z M113.151,319.6c-4.4,0-7.6-3.6-7.6-7.6c0-4.4,3.6-7.6,7.6-7.6c2,0,4,0.8,5.2,2l0.4,0.4c1.2,1.2,2,3.2,2,5.2
		s-0.8,4-2.4,5.6l0,0C117.151,318.8,115.151,319.6,113.151,319.6L113.151,319.6z"/>
	<path style="fill:#44260E;" d="M350.351,153.6l-102,102.4h144.8C391.151,218,376.351,181.6,350.351,153.6z M392.751,269.6h-144.4
		l71.6,71.6l30.4,30.4C376.351,344,391.151,307.6,392.751,269.6L392.751,269.6z M340.751,381.6l-102.4-102v144.8
		C276.351,422.4,312.751,407.6,340.751,381.6L340.751,381.6z M224.751,424V279.6L122.351,382
		C150.351,407.6,186.751,422.4,224.751,424L224.751,424z M143.151,341.6l71.6-71.6h-144.4c1.6,38,16.4,74.4,42.4,102.4
		L143.151,341.6z M70.351,256h144.8l-102.4-102.4C86.751,181.6,71.951,218,70.351,256z M122.351,144l102.4,102.4V101.6
		C186.751,103.2,150.351,118,122.351,144L122.351,144z M264.751,37.6V182l102.4-102.4C339.151,54,302.751,39.2,264.751,37.6
		L264.751,37.6z M238.351,94.4V246l124-124c2.8-2.8,7.2-2.8,9.6,0l0.4,0.4c77.6,78,77.2,204-1.2,281.6s-204,77.2-281.6-1.2
		s-77.2-204,1.2-281.6c37.2-37.2,88-58,140.4-57.6c4,0,6.8,3.2,6.8,6.8l0,0v24H238.351z M195.551,346.8c-3.2-2.8-8-2.8-10.8,0
		s-2.8,8,0,10.8s8,2.8,10.8,0l0,0C198.351,354.8,198.351,350,195.551,346.8z M189.951,330.8c5.6,0,11.2,2.4,15.2,6.4l0.4,0.4
		c8,8.4,8,21.6-0.4,30l0,0c-8.4,8.4-22,8.4-30.4,0s-8.4-22,0-30.4C178.751,333.2,184.351,330.8,189.951,330.8L189.951,330.8z
		 M272.751,334.8c-1.6-1.6-4.4-2-6.4-0.4l0,0.4c-2,2-2,4.8,0,6.4l0,0c2,1.6,4.8,1.6,6.4-0.4
		C274.351,339.2,274.351,336.4,272.751,334.8z M269.551,319.6c10,0,18.4,8.4,18.4,18.4s-8.4,18.4-18.4,18.4c-4.8,0-9.6-2-13.2-5.2
		l0,0c-7.2-7.2-7.2-18.8,0-26l0,0l0.4-0.4C260.351,321.6,265.151,319.6,269.551,319.6L269.551,319.6z M113.951,204.4
		c-2-2-4.8-2-6.4,0l0,0c-1.6,2-1.6,4.8,0,6.4l0,0c2,1.6,4.8,1.6,6.4,0l0,0C115.951,209.2,115.951,206.4,113.951,204.4L113.951,204.4
		z M110.751,189.2c4.8,0,9.6,2,13.2,5.2l0.4,0.4c6.8,7.2,6.8,18.4-0.4,25.6l0,0c-7.2,7.2-18.8,7.2-26,0l0,0l0,0
		c-7.2-7.2-7.2-18.8,0-26l0,0l0,0C101.151,191.2,105.951,189.2,110.751,189.2z M298.751,113.2c-2-2-4.8-2-6.4,0l0,0
		c-1.6,2-1.6,4.8,0,6.4l0,0c1.6,2,4.8,2,6.4,0.4C300.751,118.4,300.751,115.6,298.751,113.2L298.751,113.2z M295.551,98.4
		c4.8,0,9.6,2,13.2,5.6l0.4,0.4c6.8,7.6,6.4,19.2-1.2,26c-7.2,6.4-18.4,6.4-25.2-0.4l0,0c-7.2-7.2-7.2-18.8,0-26l0,0l0,0
		C285.951,100,290.751,98.4,295.551,98.4z M205.551,190.8c-2-2-4.8-2-6.4,0l0,0c-1.6,2-1.6,4.8,0,6.4l0,0c2,2,4.8,2,6.8,0
		C207.551,195.6,207.551,192.8,205.551,190.8L205.551,190.8L205.551,190.8z M202.351,175.6c4.8,0,9.6,1.6,13.2,5.2l0.4,0.4
		c7.2,7.2,6.8,19.2-0.4,26c-7.2,7.2-19.2,6.8-26-0.8l0,0c-7.2-7.2-7.2-18.8,0-26l0,0l0,0C192.751,177.2,197.551,175.6,202.351,175.6
		L202.351,175.6z M344.751,213.2c-2.8-2.8-7.6-2.8-10.8-0.4l-0.4,0.4c-2.8,3.2-2.8,8,0,10.8s8,2.8,10.8,0
		C347.551,220.8,347.551,216,344.751,213.2L344.751,213.2L344.751,213.2z M339.151,197.2c5.6,0,11.2,2.4,15.2,6.4l0,0
		c8.4,8.4,8.4,22,0,30.4s-22,8.4-30.4,0s-8.4-22,0-30.4l0.4-0.4C328.351,199.2,333.551,196.8,339.151,197.2L339.151,197.2z
		 M177.151,133.2c-3.2-3.2-8-3.2-10.8,0s-3.2,8,0,10.8l0,0c2.8,2.8,7.6,2.8,10.8,0.4l0.4-0.4
		C179.951,140.8,179.951,136,177.151,133.2L177.151,133.2z M171.551,117.2c12,0,21.6,9.6,21.6,21.6c0,5.6-2.4,11.2-6.4,15.2
		l-0.4,0.4c-8.4,8-21.6,8-30-0.4l0,0c-8.4-8.4-8.8-22-0.4-30.4C159.951,119.2,165.551,116.8,171.551,117.2L171.551,117.2z
		 M350.751,311.2c-2-2-4.8-2-6.4,0l0,0c-2,1.6-2,4.8-0.4,6.4s4.8,2,6.4,0.4l0,0l0.4-0.4C352.751,316,352.751,312.8,350.751,311.2
		L350.751,311.2z M347.551,296c10,0,18.4,8.4,18.4,18.4c0,4.8-2,9.6-5.6,13.2l-0.4,0.4c-7.6,6.8-19.2,6.4-26-1.2
		c-6.4-7.2-6.4-18.4,0.4-25.2l0,0C337.951,298,342.751,296,347.551,296z M269.151,388.4c-2-2-4.8-2-6.4,0l0,0c-2,2-2,4.8,0,6.4
		c2,2,4.8,2,6.4,0C270.751,393.2,271.151,390.4,269.151,388.4L269.151,388.4z M265.951,373.2c4.8,0,9.6,2,13.2,5.6l0.4,0.4
		c6.8,7.6,6.4,19.2-0.8,26s-19.2,6.4-26-0.8c-6.8-7.2-6.4-18.4,0.4-25.6l0,0C256.351,375.2,261.151,373.2,265.951,373.2z
		 M262.751,13.6v10c42.4,1.2,83.2,18,114.4,46.8l7.2-7.2C351.151,32.4,307.951,14.8,262.751,13.6z M251.151,196.4l-2.4-189.6
		c0-3.6,3.2-6.8,6.8-6.8l0,0h2c52.8,0,103.6,21.2,141.2,58.8c2.8,2.8,2.8,7.2,0,9.6l0,0l-130.4,130l-5.2,5.2c-2.8,2.8-7.2,2.8-9.6,0
		c-1.2-1.2-2-3.2-2-4.8l0,0v-2.4H251.151z M360.351,144c65.6,70.8,61.6,182-9.6,247.6s-182,61.6-247.6-9.6s-61.6-182,9.6-247.6
		c30.4-28.4,70.4-44.8,112-46.4V78c-102.4,4-182,90-178,192.4s90,182,192.4,178s182-90,178-192.4c-1.6-44.4-19.2-86.4-49.6-118.8
		L360.351,144z"/>
</g>
<g>
</g>
<g>
</g>
<g>
</g>
<g>
</g>
<g>
</g>
<g>
</g>
<g>
</g>
<g>
</g>
<g>
</g>
<g>
</g>
<g>
</g>
<g>
</g>
<g>
</g>
<g>
</g>
<g>
</g>
</svg>
