<?xml version="1.0" encoding="iso-8859-1"?>
<!-- Generator: Adobe Illustrator 19.0.0, SVG Export Plug-In . SVG Version: 6.00 Build 0)  -->
<svg version="1.1" id="Capa_1" xmlns="http://www.w3.org/2000/svg" xmlns:xlink="http://www.w3.org/1999/xlink" x="0px" y="0px"
	 viewBox="0 0 366.8 366.8" style="enable-background:new 0 0 366.8 366.8;" xml:space="preserve">
<path style="fill:#F4D4AB;" d="M59.35,9.2l216.8,216.4l-4.8,4.4c-55.6,53.2-128.8,83.6-205.6,85.2l-6.4,0.4V9.2z M121.75,221.6
	c-12.4-0.4-22.4,9.2-22.8,21.2c-0.4,12.4,9.2,22.4,21.2,22.8c0.8,0,1.2,0,2,0c5.6,0,11.2-2.4,15.2-6.4c8.8-8.8,8.4-22.8,0-31.2
	C132.95,224,127.35,221.6,121.75,221.6z M200.95,203.2c-7.6,0-13.6,6-13.6,13.2c0,7.6,6,13.6,13.2,13.6c3.6,0,7.2-1.6,9.6-4
	c5.2-5.2,5.2-13.6,0-19.2C207.75,204.4,204.55,203.2,200.95,203.2z M128.55,123.2c-12,0-22,10-22,22c0,6,2.4,11.6,6.4,15.6
	c4,4.4,9.6,6.8,15.2,6.8c12.4,0,22-9.6,22.4-22C150.55,133.6,140.55,123.6,128.55,123.2L128.55,123.2z M93.75,77.6
	c-7.6,0-13.6,6-13.6,13.2c0,7.6,6,13.6,13.2,13.6c3.6,0,7.2-1.6,9.6-4c4-3.6,5.2-9.6,2.8-14.4C104.15,81.2,99.35,77.6,93.75,77.6z"
	/>
<path style="fill:#FFFAE9;" d="M128.55,165.6c-11.2,0-20.4-9.2-20.4-20.4c0-5.2,2-10.4,6-14.4c7.6-8,20.4-8.4,28.8-0.8
	c6,6,8,14.8,4.4,22.8C144.15,160.8,136.55,165.6,128.55,165.6z"/>
<g>
	<path style="fill:#C0D863;" d="M121.75,264c-11.2,0-20.4-8.8-20.4-20s8.8-20.4,20-20.4s20.4,8.8,20.4,20c0,5.6-2,10.8-6,14.4
		C132.15,262,127.35,264,121.75,264z"/>
	<path style="fill:#C0D863;" d="M200.95,228c-3.2,0-6-1.2-8-3.6c-3.2-3.2-4.4-8-2.8-12.4c2-4.4,6-7.6,10.8-7.6c3.2,0,6,1.2,8,3.6
		c3.2,3.2,4.4,8,2.8,12.4C209.75,225.2,205.75,228,200.95,228z"/>
</g>
<path style="fill:#F2C249;" d="M59.35,317.2h6c77.6-1.6,151.6-32.4,207.6-86l4.4-4l29.6,29.6l-4.4,4.4
	c-63.6,61.6-148.4,96.4-236.8,98h-6.4V317.2z"/>
<path style="fill:#C0D863;" d="M93.75,102.8c-3.2,0-6-1.2-8-3.6c-3.2-3.2-4.4-8-2.8-12.4c2-4.4,6-7.2,10.8-7.6c3.2,0,6,1.2,8,3.6
	c3.6,3.2,4.4,8,2.8,12.4C102.95,100,98.55,103.2,93.75,102.8L93.75,102.8z"/>
<path style="fill:#44260E;" d="M267.35,225.6l-202-202v285.6C140.95,307.6,212.95,278,267.35,225.6z M276.95,235.6
	c-56.8,54.8-132.4,86-211.6,87.6v30c86.8-1.6,170-36,232.8-96.4L276.95,235.6z M138.55,135.2c-5.6-5.6-14.4-5.6-20,0l0,0
	c-5.6,5.6-5.6,14.4-0.4,20l0.4,0.4c5.6,5.6,14.4,5.6,20,0l0,0C144.15,150,144.15,141.2,138.55,135.2L138.55,135.2z M128.55,117.2
	c7.6,0,14.8,2.8,20,8.4l0,0c10.8,10.8,10.8,28.8,0,39.6l0,0l0,0c-10.8,10.8-28.8,10.8-39.6,0l0,0l-0.4-0.4
	c-10.8-11.2-10.4-28.4,0.4-39.2l0,0C114.15,120.4,120.95,117.2,128.55,117.2L128.55,117.2z M131.75,233.6c-5.6-5.6-14.4-6-20.4-0.4
	c-5.6,5.6-6,14.4-0.4,20.4c5.6,5.6,14.4,6,20.4,0.4c2.8-2.8,4.4-6.4,4.4-10C135.75,240,134.55,236.4,131.75,233.6L131.75,233.6z
	 M121.75,215.6c7.6,0,14.8,2.8,20,8.4l0,0c10.8,10.8,10.8,28.8,0,39.6l0,0l0,0c-10.8,10.8-28.8,10.8-39.6,0l0,0l0,0
	c-10.8-10.8-10.8-28.8,0-39.6l0,0l0,0C107.35,218.8,114.15,215.6,121.75,215.6z M204.95,212.4c-2.4-2-5.6-2-8,0l0,0
	c-2,2.4-2,5.6,0,8l0,0c2.4,2,5.6,2,8,0l0,0C206.95,218,206.95,214.8,204.95,212.4z M200.95,196.8c5.2,0,10,2,13.6,5.6l0,0
	c7.6,7.6,7.6,20,0,27.2l0,0l0,0c-7.6,7.6-20,7.6-27.2,0l0,0l0,0c-7.6-7.6-7.6-20,0-27.2l0,0l0,0
	C190.95,199.2,195.75,196.8,200.95,196.8L200.95,196.8z M97.75,87.2c-2.4-2-5.6-2-8,0l0,0c-2,2.4-2,5.6,0,8l0,0c2.4,2,5.6,2,8,0l0,0
	C100.15,92.8,100.15,89.6,97.75,87.2z M93.75,71.6c5.2,0,10,2,13.6,5.6l0,0c7.6,7.6,7.6,20,0,27.2l0,0l0,0c-7.6,7.6-20,7.6-27.2,0
	l0,0l0,0c-7.6-7.6-7.6-20,0-27.2l0,0l0,0C83.75,73.6,88.55,71.6,93.75,71.6L93.75,71.6z M63.35,2.4l218.8,218.4l0,0l30.8,30.8
	c2.8,2.8,2.8,7.2,0,9.6l-0.4,0.4c-67.6,67.2-158.8,105.2-254,105.2c-4,0-6.8-3.2-6.8-6.8l0,0V7.2c0-4,2.8-6.8,6.8-7.2
	C60.55,0,62.15,0.8,63.35,2.4L63.35,2.4z"/>
<g>
</g>
<g>
</g>
<g>
</g>
<g>
</g>
<g>
</g>
<g>
</g>
<g>
</g>
<g>
</g>
<g>
</g>
<g>
</g>
<g>
</g>
<g>
</g>
<g>
</g>
<g>
</g>
<g>
</g>
</svg>
