<svg xmlns="http://www.w3.org/2000/svg" xmlns:xlink="http://www.w3.org/1999/xlink" version="1.1" preserveAspectRatio="xMidYMid meet" viewBox="96.00001491575703 3.5 310.0867989035926 431.9781156013589" width="310" height="432">
<defs>
<path d="M136.34 121.33C132.57 117.56 131.15 111.91 133.04 106.72C135.39 101.54 140.1 98.24 145.76 97.77C149.53 97.77 152.82 99.19 155.18 102.01C159.42 105.78 160.36 111.43 158.48 116.62C156.59 122.27 151.41 126.04 145.76 125.57C145.76 125.57 145.76 125.57 145.76 125.57C141.05 124.62 137.91 123.21 136.34 121.33Z" id="b11VJwBnk1"/>
<path d="M256.58 264.27C252.82 260.51 251.4 254.85 253.29 249.67C255.64 244.49 260.35 240.72 266.01 240.72C269.77 240.72 273.07 242.13 275.43 244.96C279.2 248.73 280.61 254.38 278.73 259.56C276.37 265.22 271.66 268.51 266.01 268.51C262.24 268.51 258.94 267.1 256.58 264.27Z" id="aMu6p4Mib"/>
<path d="M148.71 287.36C148.71 274.17 159.07 263.33 172.26 263.33C185.45 263.33 196.29 273.7 196.29 286.89C196.29 293.48 193.93 299.61 189.22 303.85C184.98 308.56 179.33 310.91 172.73 310.91C159.54 310.91 148.71 300.55 148.71 287.36Z" id="ab4lUZlRg"/>
<path d="M164.72 177.5C164.72 171.38 167.07 165.25 171.78 160.54C180.73 151.12 195.81 150.65 205.7 159.6C212.77 166.67 215.12 177.03 210.88 186.45C207.11 195.87 198.16 201.53 188.74 201.53C175.55 201.53 164.72 190.69 164.72 177.5Z" id="apNhGDFGU"/>
<path d="M112.02 31.29C112.02 264.1 112.02 391.72 112.02 414.14C201.05 412.26 320.34 365.83 384.41 304.12C352.69 272.4 261.89 181.46 112.02 31.29ZM112.02 384.13C112.02 387.66 112.02 415.93 112.02 419.46C214.24 417.58 312.22 377.06 386.18 305.93C384.52 304.27 376.2 295.94 361.22 280.96C257.27 348.49 174.2 382.87 112.02 384.13ZM174.67 162.72C174.67 162.72 174.67 162.72 174.67 162.72C168.07 169.32 168.07 179.68 174.2 186.28C174.25 186.33 174.62 186.7 174.67 186.75C181.27 193.34 191.63 193.34 198.22 186.75C198.22 186.75 198.22 186.75 198.22 186.75C204.82 180.15 204.82 169.79 198.22 162.72C198.22 162.72 198.22 162.72 198.22 162.72C186.92 158.33 179.07 158.33 174.67 162.72ZM210 151.42C210 151.42 210 151.42 210 151.42C222.72 164.14 222.72 185.34 210 198.06C210 198.06 210 198.06 210 198.06C210 198.06 210 198.06 210 198.06C197.28 210.77 176.08 210.77 163.36 198.06C163.36 198.06 163.36 198.06 163.36 198.06C163.08 197.77 162.92 197.62 162.89 197.58C150.17 184.39 150.65 164.14 163.36 151.42C163.36 151.42 163.36 151.42 163.36 151.42C169.49 145.29 177.5 141.53 186.45 141.53C186.45 141.53 186.45 141.53 186.45 141.53C198.07 143.72 205.92 147.02 210 151.42ZM166.19 278.14C159.6 284.73 159.12 295.1 165.72 302.16C172.31 308.76 182.68 309.23 189.74 302.63C193.04 299.34 194.93 295.1 194.93 290.86C194.93 286.15 193.51 281.91 190.22 278.61C190.22 278.61 190.22 278.61 190.22 278.61C178.91 273.9 170.9 273.74 166.19 278.14ZM201.99 267.3C201.99 267.3 201.99 267.3 201.99 267.3C214.71 280.02 214.71 301.22 201.99 313.94C201.99 313.94 201.99 313.94 201.99 313.94C201.99 313.94 201.99 313.94 201.99 313.94C189.27 326.66 168.07 326.66 155.36 313.94C155.36 313.94 155.36 313.94 155.36 313.94C155.36 313.94 155.36 313.94 155.36 313.94C142.64 301.22 142.64 280.02 155.36 267.3C155.36 267.3 155.36 267.3 155.36 267.3C155.36 267.3 155.36 267.3 155.36 267.3C161.48 261.18 169.49 257.41 178.44 257.41C187.39 257.41 195.87 260.71 201.99 267.3ZM267 253.64C267 253.64 267 253.64 267 253.64C264.65 256.47 264.65 260.24 267 263.06C267 263.06 267 263.06 267 263.06C269.83 265.42 273.6 265.42 276.42 263.06C276.42 263.06 276.42 263.06 276.42 263.06C278.78 260.24 278.78 256.47 276.42 253.64C273.6 251.29 269.83 251.29 267 253.64ZM287.73 241.87C287.73 241.87 287.73 241.87 287.73 241.87C296.68 250.82 296.68 265.42 287.73 273.9C287.73 273.9 287.73 273.9 287.73 273.9C287.73 273.9 287.73 273.9 287.73 273.9C278.78 282.85 264.17 282.85 255.7 273.9C255.7 273.9 255.7 273.9 255.7 273.9C255.7 273.9 255.7 273.9 255.7 273.9C246.74 264.95 246.74 250.34 255.7 241.87C255.7 241.87 255.7 241.87 255.7 241.87C255.7 241.87 255.7 241.87 255.7 241.87C259.94 238.1 265.59 235.27 271.71 235.27C271.71 235.27 271.71 235.27 271.71 235.27C279.56 236.84 284.9 239.04 287.73 241.87ZM140.75 106.19C140.75 106.19 140.75 106.19 140.75 106.19C138.4 109.02 138.4 112.79 140.75 115.62C140.75 115.62 140.75 115.62 140.75 115.62C143.58 117.97 147.35 117.97 150.17 115.62C150.17 115.62 150.17 115.62 150.17 115.62C153 112.79 153 109.02 150.17 106.19C147.35 103.84 143.58 103.84 140.75 106.19ZM161.48 94.42C161.48 94.42 161.48 94.42 161.48 94.42C170.43 103.37 170.43 117.97 161.48 126.45C161.48 126.45 161.48 126.45 161.48 126.45C161.48 126.45 161.48 126.45 161.48 126.45C152.53 135.4 137.93 135.4 129.45 126.45C129.45 126.45 129.45 126.45 129.45 126.45C129.45 126.45 129.45 126.45 129.45 126.45C120.5 117.5 120.5 102.9 129.45 94.42C129.45 94.42 129.45 94.42 129.45 94.42C129.45 94.42 129.45 94.42 129.45 94.42C133.69 90.18 139.34 87.82 145.46 87.82C145.46 87.82 145.46 87.82 145.46 87.82C153.31 89.39 158.65 91.59 161.48 94.42ZM367.34 263.53L367.34 263.53C389.1 285.3 401.2 297.39 403.61 299.81C406.91 303.11 406.91 308.29 403.61 311.11C403.57 311.16 403.19 311.54 403.14 311.58C323.53 390.73 216.12 435.48 104.01 435.48C99.3 435.48 96 431.71 96 427.47C96 427.47 96 427.47 96 427.47C96 178.18 96 39.68 96 11.98C96 7.27 99.3 3.97 104.01 3.5C106.36 3.5 108.25 4.44 109.66 6.33C109.66 6.33 109.66 6.33 109.66 6.33L367.34 263.53Z" id="a2CKZA883V"/>
<path d="M109.74 411.26C159.55 410.24 216.61 399.56 267.68 375.89C310.32 356.13 348.39 326.01 378.4 297.28C378.4 297.28 378.4 297.28 378.4 297.28C379.98 300.5 382.72 303.01 386.06 304.31C386.06 304.31 386.06 304.31 386.06 304.31C386.41 305.5 386.41 306.27 386.06 306.61C311.16 379.16 215.29 421.64 111.18 423.53C110.68 423.53 110.71 423.53 111.28 423.53L111.28 411.26C109.79 411.26 109.27 411.26 109.74 411.26Z" id="a2b68UcW0N"/>
<path d="M366.11 285.87C369.05 287.86 370.33 289.02 369.95 289.37C346.71 311.61 315.58 333.73 284.92 350.51C229.22 381.01 170.66 397.99 112.32 399.21C111.82 399.24 111.82 392.06 112.32 377.68L111.28 29.83L366.11 285.87ZM152.42 288.94C151.95 303.55 163.25 315.32 177.39 315.8C178.33 315.8 178.8 315.8 179.74 315.8C186.34 315.8 192.93 312.97 197.64 308.26C208.01 297.89 207.53 281.41 197.64 271.51C192.46 266.8 185.87 263.98 179.27 263.98C164.67 263.51 152.89 274.81 152.42 288.94ZM256.53 257.85C256.53 266.8 263.59 273.87 272.07 273.87C276.31 273.87 280.55 271.99 283.38 269.16C289.5 263.03 289.5 253.14 283.38 246.55C280.55 243.72 276.78 242.31 272.54 242.31C263.59 242.31 256.53 249.37 256.53 257.85ZM161.37 174C161.37 181.07 164.2 187.66 168.91 192.37C173.62 197.55 180.21 200.38 186.81 200.38C201.41 200.38 212.72 189.08 213.19 174.47C213.19 160.34 201.41 148.56 187.28 148.09C187.28 148.09 187.28 148.09 187.28 148.09C170.01 155.94 161.37 164.58 161.37 174ZM130.28 109.93C130.28 118.88 137.34 125.95 145.82 125.95C150.06 125.95 154.3 124.07 157.13 121.24C161.84 117 163.25 109.93 160.43 104.28C158.54 98.63 152.89 94.39 146.29 94.39C137.34 94.39 130.28 101.46 130.28 109.93Z" id="cf9tLFCtI"/>
<path d="M211.49 175.84C211.49 189.19 200.16 200.02 186.2 200.02C172.24 200.02 160.9 189.19 160.9 175.84C160.9 162.5 172.24 151.67 186.2 151.67C200.16 151.67 211.49 162.5 211.49 175.84Z" id="cf941JsyL"/>
<path d="M203.49 290.84C203.49 304.19 192.16 315.02 178.2 315.02C164.24 315.02 152.9 304.19 152.9 290.84C152.9 277.5 164.24 266.67 178.2 266.67C192.16 266.67 203.49 277.5 203.49 290.84Z" id="c6WrCu4IyN"/>
<path d="M288.05 257.12C288.05 266.17 280.75 273.52 271.75 273.52C262.76 273.52 255.46 266.17 255.46 257.12C255.46 248.07 262.76 240.72 271.75 240.72C280.75 240.72 288.05 248.07 288.05 257.12Z" id="d3liUHivpW"/>
<path d="M160.9 111.71C160.9 119.38 154.83 125.61 147.35 125.61C139.87 125.61 133.8 119.38 133.8 111.71C133.8 104.04 139.87 97.81 147.35 97.81C154.83 97.81 160.9 104.04 160.9 111.71Z" id="a1Oig5RDPl"/>
</defs>
<g>
<g>
<use xlink:href="#b11VJwBnk1" opacity="1" fill="#c0d863" fill-opacity="1"/>
<g>
<use xlink:href="#b11VJwBnk1" opacity="1" fill-opacity="0" stroke="#000000" stroke-width="1" stroke-opacity="0"/>
</g>
</g>
<g>
<use xlink:href="#aMu6p4Mib" opacity="1" fill="#c0d863" fill-opacity="1"/>
<g>
<use xlink:href="#aMu6p4Mib" opacity="1" fill-opacity="0" stroke="#000000" stroke-width="1" stroke-opacity="0"/>
</g>
</g>
<g>
<use xlink:href="#ab4lUZlRg" opacity="1" fill="#c0d863" fill-opacity="1"/>
<g>
<use xlink:href="#ab4lUZlRg" opacity="1" fill-opacity="0" stroke="#000000" stroke-width="1" stroke-opacity="0"/>
</g>
</g>
<g>
<use xlink:href="#apNhGDFGU" opacity="1" fill="#fffae9" fill-opacity="1"/>
<g>
<use xlink:href="#apNhGDFGU" opacity="1" fill-opacity="0" stroke="#000000" stroke-width="1" stroke-opacity="0"/>
</g>
</g>
<g>
<use xlink:href="#a2CKZA883V" opacity="1" fill="#44260e" fill-opacity="1"/>
<g>
<use xlink:href="#a2CKZA883V" opacity="1" fill-opacity="0" stroke="#000000" stroke-width="1" stroke-opacity="0"/>
</g>
</g>
<g>
<use xlink:href="#a2b68UcW0N" opacity="1" fill="#f2c249" fill-opacity="1"/>
<g>
<use xlink:href="#a2b68UcW0N" opacity="1" fill-opacity="0" stroke="#000000" stroke-width="1" stroke-opacity="0"/>
</g>
</g>
<g>
<use xlink:href="#cf9tLFCtI" opacity="1" fill="#f4d4ab" fill-opacity="1"/>
<g>
<use xlink:href="#cf9tLFCtI" opacity="1" fill-opacity="0" stroke="#000000" stroke-width="1" stroke-opacity="0"/>
</g>
</g>
<g>
<g>
<use xlink:href="#cf941JsyL" opacity="1" fill-opacity="0" stroke="#44260e" stroke-width="18" stroke-opacity="1"/>
</g>
</g>
<g>
<g>
<use xlink:href="#c6WrCu4IyN" opacity="1" fill-opacity="0" stroke="#44260e" stroke-width="18" stroke-opacity="1"/>
</g>
</g>
<g>
<g>
<use xlink:href="#d3liUHivpW" opacity="1" fill-opacity="0" stroke="#44260e" stroke-width="18" stroke-opacity="1"/>
</g>
</g>
<g>
<g>
<use xlink:href="#a1Oig5RDPl" opacity="1" fill-opacity="0" stroke="#44260e" stroke-width="18" stroke-opacity="1"/>
</g>
</g>
</g>
</svg>